<?xml version="1.0" standalone="no"?>
<!DOCTYPE svg PUBLIC "-//W3C//DTD SVG 20010904//EN"
 "http://www.w3.org/TR/2001/REC-SVG-20010904/DTD/svg10.dtd">
<svg version="1.0" xmlns="http://www.w3.org/2000/svg"
 width="512.000000pt" height="512.000000pt" viewBox="0 0 512.000000 512.000000"
 preserveAspectRatio="xMidYMid meet">
<metadata>
Created by potrace 1.14, written by Peter Selinger 2001-2017
</metadata>
<g transform="translate(0.000000,512.000000) scale(0.100000,-0.100000)"
fill="#000000" stroke="none">
<path d="M667 4615 c-224 -46 -381 -210 -422 -440 -23 -125 -7 -374 34 -515
49 -173 128 -392 143 -398 4 -2 8 -10 8 -18 0 -15 103 -222 156 -314 149 -259
315 -495 538 -764 21 -25 37 -48 35 -49 -34 -20 -241 -163 -260 -179 -79 -69
-98 -88 -136 -133 -164 -197 -39 -296 327 -260 41 4 78 9 83 12 9 6 9 6 -9
-52 -49 -160 -70 -374 -50 -518 31 -225 188 -396 406 -443 55 -11 291 -13 346
-3 27 6 63 12 79 14 17 2 51 11 76 18 l46 14 54 -39 c262 -190 514 -165 657
65 21 34 42 73 48 87 35 84 39 90 54 84 169 -73 364 -131 510 -152 60 -8 243
-8 303 1 102 16 215 70 288 138 56 54 123 163 134 220 2 11 7 29 10 39 14 45
17 73 21 191 2 69 0 150 -6 180 -5 29 -12 70 -15 89 -16 98 -89 339 -122 404
-14 27 -13 30 15 60 24 25 110 129 209 250 46 56 187 254 244 341 120 183 212
353 319 590 40 89 103 289 125 400 25 124 25 353 1 435 -9 30 -18 60 -19 65
-13 45 -56 114 -102 163 -64 69 -156 121 -260 147 -74 19 -255 27 -315 14 -19
-4 -53 -10 -75 -13 -291 -44 -650 -202 -1035 -455 -80 -52 -181 -122 -225
-156 -44 -33 -94 -71 -112 -83 l-32 -23 -128 112 c-70 61 -177 150 -238 196
-60 46 -117 89 -125 96 -32 25 -258 176 -330 219 -287 172 -552 286 -800 344
-134 31 -351 41 -453 19z m598 -327 c28 -5 64 -12 80 -15 133 -22 470 -166
657 -280 205 -124 447 -300 600 -435 l27 -24 -32 -28 c-96 -84 -163 -145 -194
-174 -19 -18 -38 -30 -41 -28 -4 2 -30 37 -57 78 -178 265 -408 471 -584 524
-368 112 -608 -227 -614 -866 -1 -128 9 -346 18 -373 2 -6 6 -39 10 -72 3 -33
10 -80 14 -104 l9 -45 -19 25 c-10 13 -52 74 -93 134 -242 361 -386 684 -441
985 -18 99 -17 269 1 349 42 178 158 298 334 345 64 16 251 19 325 4z m2710
-644 c340 -85 390 -493 125 -1039 -73 -153 -220 -395 -238 -395 -4 0 -32 47
-62 103 -50 93 -271 435 -302 468 -7 8 -52 66 -100 129 -48 63 -99 129 -113
145 -15 17 -41 47 -58 68 -18 21 -45 53 -62 71 -16 18 -55 60 -85 93 -30 33
-61 67 -68 75 -11 14 -1 23 85 71 154 86 391 182 498 201 13 3 28 7 33 10 4 2
42 8 83 12 40 3 75 8 77 9 8 7 132 -7 187 -21z m-2146 -51 c80 -31 164 -89
252 -175 68 -66 179 -199 179 -214 0 -5 -39 -49 -86 -99 -106 -112 -154 -166
-266 -300 -9 -11 -27 -31 -39 -45 -37 -43 -213 -281 -268 -363 -51 -77 -53
-78 -154 -126 -56 -27 -103 -48 -104 -47 -1 1 -6 28 -12 61 -6 33 -13 71 -16
85 -3 14 -7 45 -10 70 -3 25 -8 54 -10 66 -18 85 -25 454 -11 564 57 435 264
634 545 523z m1133 -379 c101 -106 92 -95 158 -174 30 -36 58 -67 61 -70 9 -9
153 -192 199 -254 112 -153 245 -370 327 -531 61 -120 61 -117 13 -177 -146
-184 -378 -427 -540 -568 -41 -36 -77 -67 -80 -70 -20 -20 -151 -120 -157
-120 -4 0 -8 60 -9 133 0 124 -8 258 -20 337 -11 74 -34 216 -39 240 -2 14
-10 50 -16 80 -5 30 -15 69 -20 86 -10 32 -15 57 -24 109 -4 26 1 35 38 65 47
38 110 112 134 157 9 15 16 47 17 70 2 81 -78 123 -241 127 l-84 1 -48 115
c-26 63 -64 147 -83 187 l-35 72 101 79 c100 79 255 192 262 192 2 0 40 -39
86 -86z m-443 -452 c29 -62 51 -115 49 -117 -3 -3 -72 -17 -150 -31 -89 -16
-374 -96 -409 -115 -57 -30 29 70 249 290 l164 164 21 -39 c12 -21 46 -90 76
-152z m80 -191 c11 -20 91 -248 96 -275 3 -10 7 -21 9 -23 10 -10 -135 -114
-269 -193 -104 -61 -387 -200 -407 -200 -8 0 -18 -4 -23 -9 -13 -11 -227 -91
-246 -91 -8 0 -49 35 -92 78 l-77 78 59 96 c73 121 178 271 240 346 43 52 55
59 122 80 41 13 81 26 89 29 18 8 15 6 70 22 25 7 52 15 60 16 8 2 47 11 85
20 39 10 84 19 100 22 17 3 47 8 68 11 77 13 107 12 116 -7z m207 -7 c78 -37
79 -104 1 -199 l-24 -29 -7 29 c-4 17 -22 71 -40 122 -18 51 -31 94 -29 97 8
8 62 -3 99 -20z m-1326 -356 c-12 -18 -27 -45 -33 -60 -6 -16 -14 -28 -17 -28
-4 0 -19 13 -34 29 l-28 29 28 15 c16 9 43 22 59 31 44 23 49 20 25 -16z
m1251 -30 c0 -7 2 -20 4 -28 2 -8 6 -24 8 -35 3 -11 10 -38 16 -60 5 -22 13
-56 16 -75 3 -19 8 -42 10 -50 3 -8 7 -31 9 -50 3 -20 7 -47 10 -60 25 -113
37 -436 22 -591 l-7 -76 -55 -36 -55 -36 -50 30 c-27 16 -52 29 -54 29 -14 0
-384 238 -405 260 -3 3 -43 34 -90 70 -47 35 -96 74 -110 86 -137 117 -190
168 -183 174 4 4 42 20 83 35 253 95 602 273 775 396 45 32 55 35 56 17z
m-1499 -135 c14 -16 35 -59 47 -97 18 -59 19 -75 9 -108 -6 -21 -15 -38 -20
-38 -4 0 -8 -6 -8 -12 0 -7 -12 -43 -26 -80 l-27 -67 -96 1 c-242 3 -286 102
-118 267 67 66 185 159 203 160 5 1 22 -11 36 -26z m2658 -335 c11 -40 22 -95
26 -123 3 -27 8 -53 10 -57 3 -4 5 -53 5 -110 1 -239 -85 -402 -256 -483 -38
-18 -99 -38 -133 -44 -61 -10 -240 -8 -292 4 -14 3 -45 10 -70 15 -44 8 -237
67 -253 77 -4 3 41 39 100 80 97 68 310 228 323 242 3 3 32 28 65 56 116 96
239 211 369 342 45 44 82 80 84 78 2 -2 12 -36 22 -77z m-2354 3 c-18 -29 -52
1 -39 35 5 14 8 13 26 -4 11 -11 16 -25 13 -31z m116 -96 c24 -22 79 -71 123
-109 44 -37 91 -78 105 -90 59 -53 324 -249 425 -315 61 -39 115 -75 122 -81
7 -5 28 -17 47 -27 20 -9 36 -20 36 -24 0 -6 -117 -66 -213 -108 -59 -26 -191
-71 -209 -71 -27 0 -190 183 -277 310 -40 58 -124 201 -163 275 -34 66 -118
251 -118 260 0 5 62 24 72 22 3 -1 26 -20 50 -42z m-218 -87 c6 -29 96 -215
156 -323 84 -152 204 -330 284 -420 23 -27 24 -30 8 -36 -19 -7 -172 -3 -216
6 -57 12 -152 63 -194 105 -115 114 -147 311 -92 550 32 136 45 164 54 118z
m1296 -675 c0 -16 -65 -106 -102 -139 -58 -52 -121 -77 -197 -79 -61 -1 -131
13 -131 26 0 3 26 16 58 29 68 28 287 136 316 156 21 14 56 19 56 7z"/>
</g>
</svg>
